<svg xmlns="http://www.w3.org/2000/svg" version="1.1" xmlns:xlink="http://www.w3.org/1999/xlink" xmlns:svgjs="http://svgjs.dev/svgjs" width="1000" height="1000" viewBox="0 0 1000 1000"><rect width="1000" height="1000" fill="#4b91f1"></rect><g transform="matrix(0.7,0,0,0.7,149.5757665318538,408.74033051185586)"><svg viewBox="0 0 396 103" data-background-color="#4b91f1" preserveAspectRatio="xMidYMid meet" height="260" width="1000" xmlns="http://www.w3.org/2000/svg" xmlns:xlink="http://www.w3.org/1999/xlink"><g id="tight-bounds" transform="matrix(1,0,0,1,0.23999493340841127,0.14695580922443696)"><svg viewBox="0 0 395.52 102.70590221222471" height="102.70590221222471" width="395.52"><g><svg viewBox="0 0 554.5462437281445 144.00073897779973" height="102.70590221222471" width="395.52"><g transform="matrix(1,0,0,1,159.02624372814455,56.08864535096883)"><svg viewBox="0 0 395.52 31.823448275862066" height="31.823448275862066" width="395.52"><g><svg viewBox="0 0 395.52 31.823448275862066" height="31.823448275862066" width="395.52"><g><svg viewBox="0 0 395.52 31.823448275862066" height="31.823448275862066" width="395.52"><g transform="matrix(1,0,0,1,0,0)"><svg width="395.52" viewBox="0 -50 543.72998046875 43.75" height="31.823448275862066" data-palette-color="#ffffff"><path d="M37.5-6.25L0-6.25 0-50 37.5-50 37.5-43.75 43.75-43.75 43.75-31.25 37.5-31.25 37.5-25 43.75-25 43.75-12.5 37.5-12.5 37.5-6.25ZM12.5-43.75L12.5-31.25 31.25-31.25 31.25-43.75 12.5-43.75ZM12.5-25L12.5-12.5 31.25-12.5 31.25-25 12.5-25ZM62.5-6.25L50-6.25 50-37.5 56.25-37.5 56.25-43.75 62.5-43.75 62.5-50 81.25-50 81.25-43.75 87.5-43.75 87.5-37.5 93.75-37.5 93.75-6.25 81.25-6.25 81.25-18.75 62.5-18.75 62.5-6.25ZM62.5-37.5L62.5-25 81.25-25 81.25-37.5 75-37.5 75-43.75 68.75-43.75 68.75-37.5 62.5-37.5ZM143.75-6.25L106.25-6.25 106.25-50 118.75-50 118.75-12.5 143.75-12.5 143.75-6.25ZM193.74-6.25L156.24-6.25 156.24-50 168.74-50 168.74-12.5 193.74-12.5 193.74-6.25ZM237.49-6.25L206.24-6.25 206.24-12.5 199.99-12.5 199.99-43.75 206.24-43.75 206.24-50 237.49-50 237.49-43.75 243.74-43.75 243.74-12.5 237.49-12.5 237.49-6.25ZM212.49-43.75L212.49-12.5 231.24-12.5 231.24-43.75 212.49-43.75ZM287.49-6.25L256.24-6.25 256.24-12.5 249.99-12.5 249.99-43.75 256.24-43.75 256.24-50 287.49-50 287.49-43.75 293.74-43.75 293.74-12.5 287.49-12.5 287.49-6.25ZM262.49-43.75L262.49-12.5 281.24-12.5 281.24-43.75 262.49-43.75ZM312.49-6.25L299.99-6.25 299.99-50 312.49-50 312.49-43.75 318.74-43.75 318.74-37.5 324.99-37.5 324.99-31.25 331.24-31.25 331.24-50 343.74-50 343.74-6.25 331.24-6.25 331.24-18.75 324.99-18.75 324.99-25 318.74-25 318.74-31.25 312.49-31.25 312.49-6.25ZM362.48-6.25L356.23-6.25 356.23-12.5 349.98-12.5 349.98-50 362.48-50 362.48-25 368.73-25 368.73-50 374.98-50 374.98-25 381.23-25 381.23-50 393.73-50 393.73-12.5 387.48-12.5 387.48-6.25 381.23-6.25 381.23-12.5 374.98-12.5 374.98-18.75 368.73-18.75 368.73-12.5 362.48-12.5 362.48-6.25ZM412.48-6.25L399.98-6.25 399.98-37.5 406.23-37.5 406.23-43.75 412.48-43.75 412.48-50 431.23-50 431.23-43.75 437.48-43.75 437.48-37.5 443.73-37.5 443.73-6.25 431.23-6.25 431.23-18.75 412.48-18.75 412.48-6.25ZM412.48-37.5L412.48-25 431.23-25 431.23-37.5 424.98-37.5 424.98-43.75 418.73-43.75 418.73-37.5 412.48-37.5ZM462.48-6.25L449.98-6.25 449.98-50 487.48-50 487.48-43.75 493.73-43.75 493.73-25 481.23-25 481.23-18.75 487.48-18.75 487.48-12.5 493.73-12.5 493.73-6.25 474.98-6.25 474.98-12.5 468.73-12.5 468.73-18.75 462.48-18.75 462.48-6.25ZM462.48-43.75L462.48-25 474.98-25 474.98-31.25 481.23-31.25 481.23-43.75 462.48-43.75ZM537.48-6.25L506.23-6.25 506.23-12.5 499.98-12.5 499.98-18.75 512.48-18.75 512.48-12.5 531.23-12.5 531.23-25 506.23-25 506.23-31.25 499.98-31.25 499.98-43.75 506.23-43.75 506.23-50 537.48-50 537.48-43.75 543.73-43.75 543.73-37.5 531.23-37.5 531.23-43.75 512.48-43.75 512.48-31.25 537.48-31.25 537.48-25 543.73-25 543.73-12.5 537.48-12.5 537.48-6.25Z" opacity="1" transform="matrix(1,0,0,1,0,0)" fill="#ffffff" class="undefined-text-0" data-fill-palette-color="primary" id="text-0"></path></svg></g></svg></g></svg></g></svg></g><g><svg viewBox="0 0 144.00073897779973 144.00073897779973" height="144.00073897779973" width="144.00073897779973"><g><svg></svg></g><g id="icon-0"><svg viewBox="0 0 144.00073897779973 144.00073897779973" height="144.00073897779973" width="144.00073897779973"><g><path d="M0 72c0-39.765 32.236-72 72-72 39.765 0 72 32.236 72.001 72 0 39.765-32.236 72-72.001 72.001-39.765 0-72-32.236-72-72.001zM72 141.131c38.18 0 69.13-30.951 69.131-69.131 0-38.18-30.951-69.13-69.131-69.13-38.18 0-69.13 30.951-69.13 69.13 0 38.18 30.951 69.13 69.13 69.131z" data-fill-palette-color="accent" fill="#ffdc00" stroke="transparent"></path></g><g transform="matrix(1,0,0,1,59.39610336665473,40.40163272767323)"><svg viewBox="0 0 25.20853224449028 63.19747352245327" height="63.19747352245327" width="25.20853224449028"><g><svg xmlns="http://www.w3.org/2000/svg" xmlns:xlink="http://www.w3.org/1999/xlink" version="1.1" x="0" y="0" viewBox="30.967002868652344 1.3829994201660156 38.58300018310547 96.72709655761719" enable-background="new 0 0 100 100" xml:space="preserve" height="63.19747352245327" width="25.20853224449028" class="icon-a-0" data-fill-palette-color="accent" id="a-0"><path d="M50.699 51.689c-0.008-0.197 0.005-0.394 0.009-0.591h1.119l-1.024-2.147c10.264-2.086 18.747-10.793 18.747-23.729 0-13.166-8.64-23.839-19.292-23.839-10.653 0-19.291 10.673-19.291 23.839 0 12.945 7.887 21.958 18.737 23.747l-1.013 2.13h1.42c-0.067 6.281 3.69 11.751 7.026 16.798 3.479 5.271 7.507 11.078 6.778 17.721-0.761 6.94-7.557 10.185-13.622 11.472-3.101 0.658-11.519 2.349-11.704-2.734-0.003-0.09-0.612 0.003-0.607 0.163 0.18 4.907 8.056 3.541 11.105 2.993 5.245-0.942 10.853-2.833 13.866-7.547 3.888-6.081 0.367-13.427-2.998-18.82C56.207 65.134 51.024 59.094 50.699 51.689zM66.619 19.157c-0.94-6.9-9.095-11.92-9.095-11.92l2.926-0.418C60.45 6.819 65.365 10.688 66.619 19.157zM57.524 4.938l2.143 0.994-2.563 0.418c-1.254-0.68-2.352-0.732-2.352-0.732L57.524 4.938z" fill="#ffdc00" data-fill-palette-color="accent"></path></svg></g></svg></g></svg></g></svg></g></svg></g><defs></defs></svg><rect width="395.52" height="102.70590221222471" fill="none" stroke="none" visibility="hidden"></rect></g></svg></g></svg>